<?xml version="1.0" encoding="UTF-8"?>
<svg id="Calque_1" data-name="Calque 1" xmlns="http://www.w3.org/2000/svg" viewBox="0 0 2000 2000">
  <defs>
    <style>
      .cls-1 {
        fill: #fff9f3;
        stroke-width: 0px;
      }
    </style>
  </defs>
  <path class="cls-1" d="M1243.06,197.98h-486.11c-367.47,0-665.37,297.9-665.37,665.37v273.3c0,367.47,297.9,665.37,665.37,665.37h160.97c23.87,0,43.24-19.37,43.24-43.24v-520.48c0-23.87-19.37-43.24-43.24-43.24h-64.55c-21.49,0-38.87-17.38-38.87-38.87,0-10.72,4.32-20.45,11.37-27.5,7.05-7,16.73-11.37,27.5-11.37h526.49c21.49,0,38.87,17.38,38.87,38.87,0,10.72-4.37,20.45-11.37,27.5-7.05,7-16.78,11.37-27.5,11.37h-297.73c-23.87,0-43.24,19.37-43.24,43.24v520.48c0,23.87,19.37,43.24,43.24,43.24h160.93c367.47,0,665.37-297.9,665.37-665.37v-273.3c0-367.47-297.9-665.37-665.37-665.37ZM1299.26,732.91l74.58-43.06c6.1-3.5,12.71-5.15,19.24-5.15,13.36,0,26.33,6.92,33.47,19.28,10.68,18.42,4.32,42.03-14.1,52.66l-74.63,43.06c-6.1,3.5-12.71,5.19-19.28,5.19-13.32,0-26.25-6.92-33.42-19.28-10.64-18.46-4.32-42.03,14.14-52.71ZM1151.91,617.33l43.06-74.63c10.64-18.42,34.24-24.73,52.71-14.09,12.37,7.13,19.28,20.1,19.28,33.42,0,6.53-1.69,13.19-5.19,19.28l-43.06,74.58c-10.64,18.46-34.24,24.77-52.71,14.14-12.37-7.18-19.28-20.11-19.28-33.47,0-6.53,1.69-13.14,5.19-19.24ZM962.92,503.75c0-21.49,17.6-40.25,39.09-39.99,10.42.13,19.89,4.41,26.81,11.28,6.96,7,11.28,16.6,11.28,27.28v84.83c0,21.53-17.64,40.21-39.17,39.91-10.42-.17-19.85-4.45-26.68-11.33-7-6.96-11.33-16.6-11.33-27.24v-84.74ZM753.66,527.62c18.59-10.72,42.37-4.37,53.09,14.23l43.41,75.15c3.55,6.1,5.19,12.8,5.19,19.37,0,13.45-6.96,26.5-19.41,33.68-18.59,10.77-42.37,4.37-53.09-14.18l-43.37-75.15c-3.55-6.14-5.23-12.8-5.23-19.41,0-13.45,6.96-26.5,19.41-33.68ZM573.49,703.33c7.18-12.45,20.28-19.46,33.68-19.46,6.62,0,13.27,1.69,19.41,5.23l75.15,43.37c18.55,10.72,24.95,34.5,14.22,53.09-7.22,12.45-20.28,19.41-33.72,19.41-6.57,0-13.27-1.64-19.37-5.19l-75.15-43.41c-18.59-10.72-24.95-34.5-14.23-53.05ZM736.75,1157.06c-.04.52-.04,1.04-.09,1.51-.04.65-.09,1.3-.17,1.95-.04.65-.13,1.3-.26,1.95-.09.61-.22,1.25-.35,1.86-1.56,7.48-5.27,14.14-10.51,19.37-7.05,7-16.73,11.37-27.5,11.37h-76.4c-20.15,0-37.83-15.35-39.99-34.89-.13-1.3-.22-2.64-.22-3.98v-.86c.04-.52.04-1.04.09-1.51.04-.65.09-1.3.17-1.95.04-.65.13-1.3.26-1.95.09-.61.22-1.25.35-1.86,1.56-7.48,5.27-14.14,10.51-19.37,7.05-7,16.73-11.37,27.5-11.37h76.4c20.15,0,37.83,15.35,39.99,34.89.13,1.3.22,2.64.22,3.98v.86ZM1456.21,1039.58h-913.81c-10.72,0-20.45-4.37-27.5-11.37-6.92-6.96-11.24-16.52-11.37-27.07-.26-21.62,18.63-39.3,40.25-39.3h163.74c21.23,0,39.39-15.48,42.42-36.49,17.68-122.23,122.92-216.14,250.08-216.14s232.35,93.91,250.04,216.14c3.03,21.01,21.19,36.49,42.42,36.49h165.12c10.72,0,20.45,4.37,27.46,11.37,6.96,6.96,11.28,16.52,11.41,27.07.26,21.62-18.63,39.3-40.25,39.3Z"/>
</svg>