<svg xmlns="http://www.w3.org/2000/svg" id="Calque_1" data-name="Calque 1" viewBox="164.93 205.66 1941.73 824.6">
  <defs>
    <style>
      .cls-1 {
        fill: #FF4925;
        stroke-width: 0px;
      }
    </style>
  </defs>
  <path class="cls-1" d="M409.09,383.63c-9.9-16.33-21.37-28.36-34.46-36.08-13.06-7.69-29.18-15.12-48.32-22.29-8.4-2.98-15.09-5.57-20.1-7.81-4.98-2.27-8.87-4.72-11.67-7.37-1.74-1.39-3.12-3.45-4.33-6.19-1.15-2.74-1.71-5.19-1.71-7.37,0-1.86.62-3.45,1.86-4.81,1.27-1.3,2.89-1.98,4.92-1.98s3.66.62,4.89,1.89c1.24,1.24,1.89,2.74,1.89,4.42,0,9.7,7.81,17.54,17.48,17.54h83.37c4.42,0,8.37-1.77,11.26-4.66,2.83-2.89,4.6-6.87,4.6-11.26-.15-18.51-4.89-34.64-14.21-48.46-9.34-13.74-23.61-24.47-42.86-32.1-19.22-7.61-43.39-11.44-72.55-11.44-40.12,0-70.51,7.25-91.03,21.73-20.58,14.47-31.31,38.23-32.28,71.25v4.42c0,20.72,4.33,37.73,12.88,51.15,8.58,13.38,18.75,23.7,30.6,30.95,11.82,7.22,26.68,14.68,44.6,22.29,11.82,5.13,20.81,9.37,26.97,12.62,6.16,3.27,10.91,7.07,14.39,11.47,1.53,2,2.68,4.57,3.51,7.58.77,3.04,1.15,6.1,1.15,9.23,0,1.68-.59,3.27-1.8,4.69-1.15,1.39-2.83,2.06-4.98,2.06-2.51,0-4.24-.68-5.25-2.06-1-1.41-1.53-3.01-1.53-4.69,0-12.53-10.14-22.67-22.64-22.67h-77.56c-11.73,0-21.25,9.52-21.25,21.22.29,61.55,45.49,92.27,135.48,92.27,23.94,0,45.1-3.12,63.38-9.32,18.31-6.25,32.72-15.74,43.36-28.51,10.55-12.76,16.15-28.48,16.77-47.17v-5.63c0-26.91-4.95-48.55-14.83-64.91Z"/>
  <path class="cls-1" d="M696.74,213.39h-97.9c-9.64,0-17.54,7.9-17.54,17.57v196.8c0,9.67-2.15,14.47-6.54,14.47s-6.51-4.89-6.51-14.71v-196.62c0-9.67-7.84-17.51-17.51-17.51h-98.55c-9.67,0-17.51,7.84-17.51,17.51v213.69c0,31.6,11.79,55.48,35.37,71.6,23.55,16.1,58.43,24.17,104.53,24.17s80.86-8.08,104.35-24.17c23.52-16.12,35.29-40,35.29-71.6v-213.69c0-9.67-7.81-17.51-17.48-17.51Z"/>
  <path class="cls-1" d="M1064.28,213.39h-131.53c-9.29,0-16.95,7.22-17.51,16.45l-8.81,148.9h-5.6l-8.61-148.84c-.59-9.29-8.22-16.51-17.51-16.51h-131.53c-9.65,0-17.48,7.83-17.48,17.48v282.61c0,9.67,7.84,17.51,17.51,17.51h77.76c10.44,0,18.54-9.08,17.39-19.49l-16.71-148.22h2.04c2.31,0,4.28,1.67,4.67,3.95l25.16,149.14c1.44,8.46,8.7,14.62,17.25,14.62h65.88c8.55,0,15.86-6.22,17.3-14.68l24.7-149.07c.32-2.24,2.3-3.95,4.57-3.95h2.36l-16.51,148.28c-1.15,10.35,6.99,19.43,17.42,19.43h77.79c9.7,0,17.54-7.84,17.54-17.51V230.9c0-9.67-7.84-17.51-17.54-17.51Z"/>
  <path class="cls-1" d="M1432.55,213.39h-131.53c-9.26,0-16.95,7.22-17.48,16.45l-8.84,148.9h-5.57l-8.67-148.84c-.53-9.29-8.17-16.51-17.45-16.51h-131.53c-9.69,0-17.54,7.85-17.54,17.54v282.55c0,9.67,7.84,17.51,17.54,17.51h77.79c10.44,0,18.54-9.08,17.39-19.49l-16.71-148.22h2.27c2.18,0,4.04,1.57,4.4,3.72l25.2,149.36c1.39,8.46,8.7,14.62,17.25,14.62h65.88c8.55,0,15.86-6.22,17.24-14.68l24.7-149.07c.38-2.24,2.36-3.95,4.63-3.95h2.36l-16.51,148.28c-1.18,10.35,6.93,19.43,17.42,19.43h77.76c9.67,0,17.51-7.84,17.51-17.51V230.9c0-9.67-7.84-17.51-17.51-17.51Z"/>
  <path class="cls-1" d="M1659.77,445.65h-76.56c-8.46,0-15.33-6.87-15.33-15.33v-9.99c0-8.46,6.87-15.3,15.33-15.3h58.28c8.84-.91,15.71-8.37,15.71-17.39v-27.8c0-9.7-7.84-17.54-17.48-17.54h-56.51c-8.46,0-15.33-6.87-15.33-15.33v-9.96c0-8.46,6.87-15.33,15.33-15.33h71.22c9.67,0,17.48-7.84,17.48-17.51v-53.27c0-9.67-7.81-17.51-17.48-17.51h-174.72c-9.67,0-17.48,7.84-17.48,17.51v282.58c0,9.67,7.81,17.51,17.48,17.51h176.34c9.67,0,17.51-7.84,17.51-17.51v-50.67c0-8.34-5.93-15.42-13.8-17.16Z"/>
  <path class="cls-1" d="M2081.29,586.65c-.83.68-1.59,1.36-2.42,1.95-.94.77-1.92,1.41-2.86,2.09-1.12.83-2.21,1.59-3.39,2.27-3.07,1.98-6.13,3.66-9.02,5.04-.97.53-1.92.97-2.83,1.3-2.8,1.27-5.39,2.27-7.69,3.04,3.89-1.21,7.78-2.74,11.59-4.63,6.84-3.33,12.82-7.43,18.13-12.29-.5.41-1,.83-1.5,1.24Z"/>
  <path class="cls-1" d="M1000.19,1001.2l-104.56-440.23c-1.56-6.43-7.31-11-13.94-11h-186.63c-6.63,0-12.41,4.57-13.94,11l-104.24,440.23c-2.12,8.99,4.72,17.66,13.94,17.66h168.71c7.69,0,14.03-6.13,14.33-13.8l.41-12.03c.24-8.05,7.02-14.3,15.15-13.85,7.49.44,13.24,6.99,13.56,14.53l.47,11.44c.35,7.64,6.63,13.71,14.33,13.71h168.41c9.29,0,16.1-8.67,14-17.66ZM787.98,875.77c-4.95,0-8.93-4.13-8.76-9.08l5.16-129.85h6.19l6.16,129.76c.24,4.98-3.74,9.17-8.76,9.17Z"/>
  <path class="cls-1" d="M2067.09,563.95c22.47-13.33,35.57-32.75,38.78-58.52,1.24-9.91,1.59-20.04-3.35-29.06-1.93-3.51-5.95-7.07-9.71-8.13-7.04-1.98-13.77,4.95-12.72,12.29.46,3.25,1.61,6.6,3.23,9.46,12.22,21.55,9.06,47.91-8.22,66.25-2.54,2.69-5.33,5.14-8,7.71Z"/>
  <path class="cls-1" d="M2003.74,579.88c8.75-1.68,16.87-2.12,24.13-4.76,33.65-12.36,49.71-55.24,20.86-84.47-13.17-13.36-35.14-13.89-47.59-1.06-3.03,3.17-4.81,7.5-6.92,10.91,6.78-.34,12.84-1.78,18.41-.67,15.53,3.03,22.79,19.81,15.29,33.75-22.07,41.01-67.69,4.95-78.84-24.09-11.54-29.9-12.69-66.25-19.23-97.78-.34-1.63.24-3.27,1.44-4.37,14.86-13.65,22.31-33.51,22.31-59.42v-36.44c0-27.11-5.67-47.79-17.07-62.02-11.35-14.23-26.97-23.8-46.82-28.7-19.85-4.9-45.19-7.36-76.01-7.36h-112.78c-9.66,0-17.55,7.88-17.55,17.55v282.54c0,9.66,7.84,17.5,17.5,17.5h93.94c9.66,0,17.5-7.84,17.5-17.5v-75.43c0-2.6,2.07-4.66,4.66-4.66s4.52,1.92,4.66,4.42c1.01,18.94-.14,37.93.82,56.82.58,12.21,3.8,25,12.64,33.46,7.02,6.63,16.63,9.71,26.01,12.16,16.35,4.28,33.36,7.4,47.93,15.96,15.24,8.94,26.63,23.17,41.3,32.98,26.68,17.88,69.9,24.04,100.52,13.85.72-.24,1.44-.43,2.21-.72,2.31-.77,4.9-1.78,7.69-3.03.91-.38,1.87-.82,2.84-1.3,2.88-1.39,5.96-3.08,9.04-5.05,1.15-.67,2.26-1.44,3.37-2.26.96-.67,1.92-1.35,2.88-2.12.82-.62,1.63-1.25,2.4-1.92,1.01-.82,2.02-1.68,2.98-2.6.29-.24.58-.53.87-.77l1.44-1.44c.53-.48,1.06-1.06,1.59-1.59,5.87-5.86,10.62-13.32,14.23-20.77.38-.82.82-1.63,1.11-2.45.29-.77.34-1.59.53-2.36-28.46,30.96-60.91,40.29-100.28,25.19ZM1826.11,359.46c0,2.26-1.83,4.09-4.09,4.09h-5.38c-2.26,0-4.09-1.83-4.09-4.09v-52.07c0-2.26,1.83-4.09,4.09-4.09h5.38c2.26,0,4.09,1.83,4.09,4.09v52.07Z"/>
  <path class="cls-1" d="M220.71,979.9c-36.54-33.56-54.82-83.2-54.82-148.94v-94.46c0-65.28,18.27-114.58,54.82-147.91,36.55-33.32,90.56-49.99,162.04-49.99s123.43,16.03,159.98,48.09c36.54,32.07,55.62,79.47,57.23,142.22v27.31c0,9.68-7.83,17.52-17.51,17.54l-172.47.29c-9.7.02-17.57-7.84-17.57-17.54v-45.18c0-7.22-6.68-13.11-13.67-11.3-4.22,1.09-6.32,4.28-6.32,9.58v146.18c0,7.22,6.67,13.1,13.67,11.31,4.22-1.08,6.33-4.28,6.33-9.58v-45.21c0-9.69,7.85-17.54,17.54-17.54h172.47c9.69,0,17.54,7.85,17.54,17.54v26.94c-1.84,62.98-21.09,110.56-57.75,142.74-36.66,32.18-89.81,48.27-159.46,48.27s-125.49-16.78-162.04-50.34Z"/>
  <path class="cls-1" d="M1511.85,549.99h-194.18c-13.66,0-25.02,10.66-25.81,24.28l-13.06,219.81h-8.23l-12.79-219.73c-.78-13.71-12.05-24.37-25.76-24.37h-194.18c-14.32,0-25.89,11.58-25.89,25.85v417.17c0,14.27,11.58,25.85,25.89,25.85h114.85c15.41,0,27.37-13.4,25.68-28.77l-24.68-218.81h3.22c3.29,0,6.11,2.38,6.65,5.63l37.17,220.37c2.05,12.49,12.84,21.59,25.46,21.59h97.26c12.62,0,23.41-9.18,25.46-21.67l36.47-220.07c.57-3.31,3.48-5.83,6.83-5.83h3.48l-24.37,218.9c-1.74,15.28,10.23,28.68,25.72,28.68h114.8c14.28,0,25.85-11.57,25.85-25.85v-417.17c0-14.28-11.57-25.85-25.85-25.85Z"/>
  <path class="cls-1" d="M1929.34,603.26c-16.77-21.05-39.79-35.2-69.12-42.39-29.27-7.28-66.68-10.88-112.19-10.88h-166.61c-14.19,0-25.79,11.61-25.79,25.79v417.29c0,14.24,11.55,25.79,25.79,25.79h149.42c14.24,0,25.79-11.55,25.79-25.79v-85.96h5.87c39.5,0,72.96-3.6,100.31-10.85,27.36-7.22,49.37-21.19,66.03-41.89,16.65-20.66,25.23-49.99,25.7-87.9v-71.69c0-40-8.4-70.51-25.2-91.53ZM1769.37,780.8c0,4.65-3.81,8.46-8.46,8.46h-7.07c-4.65,0-8.46-3.81-8.46-8.46v-89.61c0-4.65,3.81-8.46,8.46-8.46h7.07c4.65,0,8.46,3.81,8.46,8.46v89.61Z"/>
</svg>