<svg xmlns="http://www.w3.org/2000/svg" id="Calque_1" data-name="Calque 1" viewBox="153.49 153.49 773.02 773.02">
  <defs>
    <style>
      .cls-1 {
        fill: #292662;
        stroke-width: 0px;
      }
    </style>
  </defs>
  <path class="cls-1" d="M153.49,153.49h773.02v773.02H153.49V153.49ZM855.37,224.63H224.63v630.75h467.97c89.9,0,162.78-72.88,162.78-162.78V224.63Z"/>
  <path class="cls-1" d="M483.74,296.76l-67.56,79.9c-1.12,1.33-3.18,1.32-4.29-.01l-66.62-79.87c-.53-.64-1.32-1.01-2.15-1.01h-44.55c-1.55,0-2.8,1.25-2.8,2.8v214.15c0,1.55,1.25,2.8,2.8,2.8h231.23c1.55,0,2.8-1.25,2.8-2.8v-214.15c0-1.55-1.25-2.8-2.8-2.8h-43.91c-.82,0-1.61.36-2.14.99ZM351.2,381.25v-.12l.08.12h-.08ZM477.12,381.25l.08-.12v.12h-.08Z"/>
  <path class="cls-1" d="M800.97,405.29c0,21.93-5.46,67.67-53.48,93.79-20.93,11.27-42.2,16.43-80.56,16.43h-82.57c-1.55,0-2.8-1.25-2.8-2.8v-214.15c0-1.55,1.25-2.8,2.8-2.8h86.76c14.2,0,34.47,0,59.63,8.69,17.39,6.12,70.21,32.85,70.21,100.83Z"/>
  <path class="cls-1" d="M483.74,565.48l-67.56,79.9c-1.12,1.33-3.18,1.32-4.29-.01l-66.62-79.87c-.53-.64-1.32-1.01-2.15-1.01h-44.55c-1.55,0-2.8,1.25-2.8,2.8v214.15c0,1.55,1.25,2.8,2.8,2.8h231.23c1.55,0,2.8-1.25,2.8-2.8v-214.15c0-1.55-1.25-2.8-2.8-2.8h-43.91c-.82,0-1.61.36-2.14.99ZM351.2,649.97v-.12l.08.12h-.08ZM477.12,649.97l.08-.12v.12h-.08Z"/>
</svg>