<svg xmlns="http://www.w3.org/2000/svg" id="Calque_1" data-name="Calque 1" viewBox="157.74 433.08 764.53 213.85">
  <defs>
    <style>
      .cls-1 {
        fill: #292660;
        stroke-width: 0px;
      }
    </style>
  </defs>
  <g>
    <g>
      <path class="cls-1" d="M455.52,482.46v-40.93h-.61l-10.08,27.38h-5.04l-10.01-27.38h-.61v40.93h-9.47v-49.37h14.16l8.04,22.47h.89l8.04-22.47h14.16v49.37h-9.47Z"/>
      <path class="cls-1" d="M472.95,464.48c0-10.21,6.88-17.09,17.57-17.09s17.57,6.88,17.57,17.09v1.91c0,10.22-6.81,17.09-17.5,17.09s-17.64-6.88-17.64-17.09v-1.91ZM490.52,476.12c4.43,0,8.04-2.79,8.04-10.15v-1.09c0-7.35-3.61-10.21-8.04-10.21s-8.04,2.86-8.04,10.21v1.09c0,7.35,3.54,10.15,8.04,10.15Z"/>
      <path class="cls-1" d="M554.33,455.76h-8.44c-6.4,0-9.26,2.86-9.53,8.44v10.9h11.99v7.35h-30.92v-7.35h9.33v-19.34h-9.4v-7.35h15.59c2.25,0,3.41,1.02,3.41,3.27v4.97h.54c1.36-6.27,5.58-8.24,11.92-8.24h5.52v7.35Z"/>
      <path class="cls-1" d="M561.21,464.48c0-10.21,6.88-17.09,17.57-17.09s17.57,6.88,17.57,17.09v1.91c0,10.22-6.81,17.09-17.5,17.09s-17.64-6.88-17.64-17.09v-1.91ZM578.78,476.12c4.43,0,8.04-2.79,8.04-10.15v-1.09c0-7.35-3.61-10.21-8.04-10.21s-8.04,2.86-8.04,10.21v1.09c0,7.35,3.54,10.15,8.04,10.15Z"/>
      <path class="cls-1" d="M641.29,468.43c-.89,9.13-7.9,15.05-17.71,15.05-10.42,0-17.77-6.95-17.77-17.16v-1.91c0-10.15,7.08-17.02,17.57-17.02,9.26,0,16.55,4.22,17.84,14.78h-9.53c-.75-5.11-4.02-7.56-8.17-7.56-4.5,0-8.17,2.86-8.17,10.22v1.09c0,7.35,3.75,10.21,8.24,10.21,4.02,0,7.42-2.18,8.1-7.7h9.6Z"/>
      <path class="cls-1" d="M687.05,468.43c-.89,9.13-7.9,15.05-17.71,15.05-10.42,0-17.77-6.95-17.77-17.16v-1.91c0-10.15,7.08-17.02,17.57-17.02,9.26,0,16.55,4.22,17.84,14.78h-9.53c-.75-5.11-4.02-7.56-8.17-7.56-4.5,0-8.17,2.86-8.17,10.22v1.09c0,7.35,3.75,10.21,8.24,10.21,4.02,0,7.42-2.18,8.1-7.7h9.6Z"/>
      <path class="cls-1" d="M720.08,475.99h-.68c-1.77,3.81-5.45,7.49-11.99,7.49-7.7,0-11.24-5.11-11.24-10.01s3.34-10.9,14.57-10.9h9.33v-5.58c0-.75-.48-1.23-1.23-1.23h-20.57v-7.35h23.22c5.45,0,8.1,2.93,8.1,7.35v19.41h5.31v7.29h-10.69c-2.52,0-4.15-1.63-4.15-4.22v-2.25ZM720.08,467.54h-7.83c-4.56,0-6.81,2.32-6.81,5.24s2.38,4.9,5.92,4.9c4.9,0,8.17-3.68,8.72-6.33v-3.81Z"/>
      <path class="cls-1" d="M743.91,448.41h9.53v5.31h.61c3.41-5.04,9.06-6.33,13.28-6.33,6.2,0,9.74,2.86,9.74,11.37v23.7h-9.6v-21.25c0-5.52-2.79-6.67-5.31-6.67-3.4,0-7.01,2.11-8.65,5.31v22.61h-9.6v-34.05Z"/>
      <path class="cls-1" d="M421.33,514.8h16c12.6,0,20.77,7.7,20.77,21.79v5.24c0,14.03-8.1,22.34-20.7,22.34h-16.07v-49.37ZM437.47,556.82c6.06,0,11.1-3.81,11.1-16v-3.13c0-12.33-5.04-15.53-11.1-15.53h-6.61v34.66h6.61Z"/>
      <path class="cls-1" d="M489.57,557.71h-.68c-1.77,3.81-5.45,7.49-11.99,7.49-7.7,0-11.24-5.11-11.24-10.01s3.34-10.9,14.57-10.9h9.33v-5.58c0-.75-.48-1.23-1.23-1.23h-20.57v-7.35h23.22c5.45,0,8.1,2.93,8.1,7.35v19.41h5.31v7.29h-10.69c-2.52,0-4.15-1.63-4.15-4.22v-2.25ZM489.57,549.26h-7.83c-4.56,0-6.81,2.32-6.81,5.24s2.38,4.9,5.92,4.9c4.9,0,8.17-3.68,8.72-6.33v-3.81Z"/>
      <path class="cls-1" d="M513.54,581.2v-7.29l7.63-.07c1.02,0,1.84-.54,2.18-1.5l3.2-8.1h-2.59l-13.62-34.05h9.6l5.65,15.6,3.88,11.78h.61l3.88-11.78,5.72-15.6h9.6l-18.11,43.38c-1.77,4.36-5.11,7.63-10.83,7.63h-6.81Z"/>
      <path class="cls-1" d="M597.16,546.2c0-10.21,6.88-17.09,17.57-17.09s17.57,6.88,17.57,17.09v1.91c0,10.21-6.81,17.09-17.5,17.09s-17.64-6.88-17.64-17.09v-1.91ZM614.73,557.84c4.43,0,8.04-2.79,8.04-10.15v-1.09c0-7.36-3.61-10.22-8.04-10.22s-8.04,2.86-8.04,10.22v1.09c0,7.36,3.54,10.15,8.04,10.15Z"/>
      <path class="cls-1" d="M642.17,530.13h12.46v-9.94c0-4.36,2.45-7.08,7.83-7.08h13.76v7.35h-12.05v11.37h.54c.82-1.09,1.84-1.7,4.36-1.7h7.15v7.35h-12.05v19.34h10.49v7.35h-33.51v-7.35h13.48v-19.34h-12.46v-7.35Z"/>
      <path class="cls-1" d="M455.52,645.89v-40.93h-.61l-10.08,27.38h-5.04l-10.01-27.38h-.61v40.93h-9.47v-49.37h14.16l8.04,22.47h.89l8.04-22.47h14.16v49.37h-9.47Z"/>
      <path class="cls-1" d="M496.99,639.42h-.68c-1.77,3.81-5.45,7.49-11.99,7.49-7.7,0-11.24-5.11-11.24-10.01s3.34-10.9,14.57-10.9h9.33v-5.58c0-.75-.48-1.23-1.23-1.23h-20.57v-7.35h23.22c5.45,0,8.1,2.93,8.1,7.35v19.41h5.31v7.29h-10.69c-2.52,0-4.15-1.63-4.15-4.22v-2.25ZM496.99,630.98h-7.83c-4.56,0-6.81,2.32-6.81,5.24s2.38,4.9,5.92,4.9c4.9,0,8.17-3.68,8.72-6.33v-3.81Z"/>
      <path class="cls-1" d="M538.66,613.55h.41c.82-1.09,1.77-1.7,4.36-1.7h12.12v7.35h-16.89v19.34h16.89v7.35h-18.66c-5.31,0-7.83-2.72-7.83-7.08v-19.61h-11.51v-7.35h11.51v-11.58h9.6v13.28Z"/>
      <path class="cls-1" d="M566.52,594.82h9.53v22.34h.61c3.2-6.13,8.51-6.33,10.49-6.33,8.24,0,12.53,3.54,12.53,12.05v23.02h-9.6v-20.57c0-5.52-3.54-7.35-6.67-7.35-4.09,0-7.29,3.2-7.29,5.92v22h-9.6v-51.08Z"/>
      <path class="cls-1" d="M644.97,630.64h-25.61c.27,7.56,3.81,10.28,8.24,10.28,3.47,0,6.54-1.5,7.56-6.67h9.53c-1.63,8.17-8.04,12.67-17.09,12.67-10.83,0-17.84-6.54-17.84-17.09v-1.91c0-10.56,6.88-17.09,17.57-17.09s17.64,6.26,17.64,18.46v1.36ZM635.16,625.67c-.48-6.67-3.88-8.85-7.83-8.85s-7.22,2.32-7.76,8.85h15.59Z"/>
      <path class="cls-1" d="M652.53,611.84h9.53v5.31h.61c2.72-6.13,7.49-6.33,9.33-6.33,4.02,0,7.76,1.77,8.99,6.33h.54c2.66-6.13,7.35-6.33,9.26-6.33,5.52,0,9.06,3.34,9.06,10.28v24.79h-9.6v-22.81c0-3.95-1.57-5.11-3.75-5.11-3.27,0-5.52,2.66-5.52,5.45v22.47h-9.53v-23.02c0-3.81-1.57-4.9-3.75-4.9-3.47,0-5.58,2.72-5.58,5.52v22.41h-9.6v-34.05Z"/>
      <path class="cls-1" d="M731.11,639.42h-.68c-1.77,3.81-5.45,7.49-11.99,7.49-7.7,0-11.24-5.11-11.24-10.01s3.34-10.9,14.57-10.9h9.33v-5.58c0-.75-.48-1.23-1.23-1.23h-20.57v-7.35h23.22c5.45,0,8.1,2.93,8.1,7.35v19.41h5.31v7.29h-10.69c-2.52,0-4.15-1.63-4.15-4.22v-2.25ZM731.11,630.98h-7.83c-4.56,0-6.81,2.32-6.81,5.24s2.38,4.9,5.92,4.9c4.9,0,8.17-3.68,8.72-6.33v-3.81Z"/>
      <path class="cls-1" d="M772.79,613.55h.41c.82-1.09,1.77-1.7,4.36-1.7h12.12v7.35h-16.89v19.34h16.89v7.35h-18.66c-5.31,0-7.83-2.72-7.83-7.08v-19.61h-11.51v-7.35h11.51v-11.58h9.6v13.28Z"/>
      <path class="cls-1" d="M801.66,638.54h13.48v-19.34h-13.48v-7.35h15.19c5.38,0,7.83,2.72,7.83,7.08v19.61h10.96v7.35h-33.98v-7.35ZM814.74,599.72c0-2.04,1.02-3.06,3.13-3.06h4.02c2.11,0,3.13,1.02,3.13,3.06v3.41c0,2.04-1.02,3.06-3.13,3.06h-4.02c-2.11,0-3.13-1.02-3.13-3.06v-3.41Z"/>
      <path class="cls-1" d="M879.98,631.87c-.89,9.12-7.9,15.05-17.71,15.05-10.42,0-17.77-6.95-17.77-17.16v-1.91c0-10.15,7.08-17.02,17.57-17.02,9.26,0,16.55,4.22,17.84,14.78h-9.53c-.75-5.11-4.02-7.56-8.17-7.56-4.5,0-8.17,2.86-8.17,10.21v1.09c0,7.35,3.75,10.21,8.24,10.21,4.02,0,7.42-2.18,8.1-7.7h9.6Z"/>
      <path class="cls-1" d="M905.78,646.92c-9.94,0-16.48-4.97-16.48-11.78h8.04c0,2.11,2.11,5.52,8.44,5.52,3.88,0,7.7-1.43,7.7-5.11,0-2.04-1.23-3.06-5.79-3.88l-8.24-1.36c-5.72-.95-9.19-4.77-9.19-9.13v-.68c0-6.13,5.99-10.01,14.71-10.01s16.68,3.47,16.89,11.85h-7.7c-.34-3.2-3-5.65-9.33-5.65-5.11,0-6.47,1.63-6.47,3.75,0,2.79,2.72,3.95,7.56,4.7l8.31,1.36c4.97.75,8.04,3.95,8.04,8.24v.68c0,7.7-7.7,11.51-16.48,11.51Z"/>
    </g>
    <path class="cls-1" d="M816.37,467.39c0-1.35.26-2.62.78-3.83.52-1.2,1.23-2.25,2.13-3.15s1.94-1.6,3.13-2.12c1.2-.52,2.47-.78,3.84-.78s2.62.26,3.82.78c1.2.52,2.25,1.23,3.15,2.12.89.89,1.6,1.94,2.13,3.15.52,1.2.78,2.48.78,3.83s-.26,2.64-.78,3.84c-.52,1.2-1.23,2.24-2.13,3.13-.89.89-1.94,1.6-3.15,2.13-1.2.52-2.48.78-3.82.78s-2.64-.26-3.84-.78c-1.2-.52-2.24-1.23-3.13-2.13-.89-.89-1.6-1.94-2.13-3.13-.52-1.2-.78-2.47-.78-3.84ZM818.92,467.39c0,1.06.19,2.06.57,2.99.38.93.9,1.74,1.55,2.43.66.69,1.43,1.24,2.32,1.63.89.4,1.85.6,2.88.6s1.99-.2,2.88-.6c.89-.4,1.67-.94,2.32-1.63.65-.69,1.17-1.5,1.55-2.43.38-.93.57-1.93.57-2.99s-.19-2.06-.57-2.99c-.38-.93-.9-1.74-1.55-2.43-.66-.69-1.43-1.24-2.32-1.63-.89-.4-1.86-.6-2.88-.6s-1.99.2-2.88.6c-.89.4-1.67.94-2.32,1.63-.66.69-1.17,1.5-1.55,2.43-.38.93-.57,1.93-.57,2.99ZM831.24,468.9c-.09.67-.28,1.26-.57,1.77-.29.5-.65.93-1.08,1.28-.43.35-.9.61-1.43.78-.53.18-1.08.27-1.65.27-.83,0-1.58-.15-2.23-.44-.66-.29-1.21-.69-1.66-1.21-.45-.51-.8-1.12-1.04-1.81-.24-.69-.36-1.43-.36-2.23s.12-1.56.35-2.24c.23-.68.56-1.27,1-1.77.43-.5.98-.88,1.63-1.16.66-.27,1.41-.41,2.26-.41,1.2,0,2.25.32,3.13.96.89.64,1.43,1.6,1.65,2.9h-2.5c-.12-.62-.38-1.04-.77-1.27-.39-.23-.82-.35-1.3-.35-1.03,0-1.77.31-2.22.93-.45.62-.68,1.41-.68,2.36,0,1.01.24,1.85.73,2.51.49.66,1.19,1,2.11,1,.57,0,1.05-.14,1.46-.41.41-.27.63-.76.66-1.45h2.5Z"/>
    <rect class="cls-1" x="725.33" y="538.08" width="196.93" height="7.78"/>
    <rect class="cls-1" x="876.69" y="463.5" width="45.58" height="7.78"/>
  </g>
  <g>
    <path class="cls-1" d="M157.74,433.08h212.8v212.8h-212.8v-212.8ZM350.95,452.67h-173.63v173.63h128.82c24.75,0,44.81-20.06,44.81-44.81v-128.82Z"/>
    <path class="cls-1" d="M248.65,472.52l-18.6,22c-.31.37-.87.36-1.18,0l-18.34-21.99c-.15-.18-.36-.28-.59-.28h-12.26c-.43,0-.77.35-.77.77v58.95c0,.43.35.77.77.77h63.65c.43,0,.77-.35.77-.77v-58.95c0-.43-.35-.77-.77-.77h-12.09c-.23,0-.44.1-.59.27ZM212.16,495.78v-.03l.02.03h-.02ZM246.82,495.78l.02-.03v.03h-.02Z"/>
    <path class="cls-1" d="M335.98,502.4c0,6.04-1.5,18.63-14.72,25.82-5.76,3.1-11.62,4.52-22.18,4.52h-22.73c-.43,0-.77-.35-.77-.77v-58.95c0-.43.35-.77.77-.77h23.88c3.91,0,9.49,0,16.42,2.39,4.79,1.68,19.33,9.04,19.33,27.76Z"/>
    <path class="cls-1" d="M248.65,546.5l-18.6,22c-.31.37-.87.36-1.18,0l-18.34-21.99c-.15-.18-.36-.28-.59-.28h-12.26c-.43,0-.77.35-.77.77v58.95c0,.43.35.77.77.77h63.65c.43,0,.77-.35.77-.77v-58.95c0-.43-.35-.77-.77-.77h-12.09c-.23,0-.44.1-.59.27ZM212.16,569.76v-.03l.02.03h-.02ZM246.82,569.76l.02-.03v.03h-.02Z"/>
  </g>
</svg>